<mxfile host="app.diagrams.net" agent="Mozilla/5.0 (Windows NT 10.0; Win64; x64) AppleWebKit/537.36 (KHTML, like Gecko) Chrome/133.0.0.0 Safari/537.36 OPR/118.0.0.0" version="26.2.12" pages="3">
  <diagram name="Package-Diagram" id="-4kcNOzpLKwisnCuhh6N">
    <mxGraphModel dx="1669" dy="765" grid="0" gridSize="10" guides="1" tooltips="1" connect="1" arrows="1" fold="1" page="0" pageScale="1" pageWidth="850" pageHeight="1100" math="0" shadow="0">
      <root>
        <mxCell id="0" />
        <mxCell id="1" parent="0" />
        <mxCell id="PjSp7jdSA5BGJm08OEUA-1" value="Presentation Layer" style="shape=folder;fontStyle=1;spacingTop=10;tabWidth=40;tabHeight=14;tabPosition=left;html=1;whiteSpace=wrap;" vertex="1" parent="1">
          <mxGeometry x="136" y="16" width="128" height="78" as="geometry" />
        </mxCell>
        <mxCell id="PjSp7jdSA5BGJm08OEUA-5" value="Business Logic" style="shape=folder;fontStyle=1;spacingTop=10;tabWidth=40;tabHeight=14;tabPosition=left;html=1;whiteSpace=wrap;" vertex="1" parent="1">
          <mxGeometry x="136" y="127" width="128" height="78" as="geometry" />
        </mxCell>
        <mxCell id="PjSp7jdSA5BGJm08OEUA-6" value="DataAcess" style="shape=folder;fontStyle=1;spacingTop=10;tabWidth=40;tabHeight=14;tabPosition=left;html=1;whiteSpace=wrap;" vertex="1" parent="1">
          <mxGeometry x="136" y="238" width="128" height="78" as="geometry" />
        </mxCell>
        <mxCell id="PjSp7jdSA5BGJm08OEUA-7" value="Connection" style="shape=folder;fontStyle=1;spacingTop=10;tabWidth=40;tabHeight=14;tabPosition=left;html=1;whiteSpace=wrap;" vertex="1" parent="1">
          <mxGeometry x="-60" y="238" width="128" height="78" as="geometry" />
        </mxCell>
        <mxCell id="PjSp7jdSA5BGJm08OEUA-8" value="Model" style="shape=folder;fontStyle=1;spacingTop=10;tabWidth=40;tabHeight=14;tabPosition=left;html=1;whiteSpace=wrap;" vertex="1" parent="1">
          <mxGeometry x="320" y="127" width="128" height="78" as="geometry" />
        </mxCell>
        <mxCell id="PjSp7jdSA5BGJm08OEUA-9" value="Utilities" style="shape=folder;fontStyle=1;spacingTop=10;tabWidth=40;tabHeight=14;tabPosition=left;html=1;whiteSpace=wrap;" vertex="1" parent="1">
          <mxGeometry x="-60" y="16" width="128" height="78" as="geometry" />
        </mxCell>
        <mxCell id="PjSp7jdSA5BGJm08OEUA-10" value="" style="html=1;verticalAlign=bottom;endArrow=open;dashed=1;endSize=8;curved=0;rounded=0;fontSize=12;entryX=0;entryY=0;entryDx=128;entryDy=46;entryPerimeter=0;exitX=0;exitY=0;exitDx=0;exitDy=46;exitPerimeter=0;" edge="1" parent="1" source="PjSp7jdSA5BGJm08OEUA-1" target="PjSp7jdSA5BGJm08OEUA-9">
          <mxGeometry relative="1" as="geometry">
            <mxPoint x="174" y="229" as="sourcePoint" />
            <mxPoint x="94" y="229" as="targetPoint" />
          </mxGeometry>
        </mxCell>
        <mxCell id="PjSp7jdSA5BGJm08OEUA-11" value="" style="html=1;verticalAlign=bottom;endArrow=open;dashed=1;endSize=8;curved=0;rounded=0;fontSize=12;exitX=0.5;exitY=1;exitDx=0;exitDy=0;exitPerimeter=0;entryX=0.49;entryY=0.194;entryDx=0;entryDy=0;entryPerimeter=0;" edge="1" parent="1" source="PjSp7jdSA5BGJm08OEUA-1" target="PjSp7jdSA5BGJm08OEUA-5">
          <mxGeometry relative="1" as="geometry">
            <mxPoint x="241" y="229" as="sourcePoint" />
            <mxPoint x="161" y="229" as="targetPoint" />
          </mxGeometry>
        </mxCell>
        <mxCell id="PjSp7jdSA5BGJm08OEUA-12" value="" style="html=1;verticalAlign=bottom;endArrow=open;dashed=1;endSize=8;curved=0;rounded=0;fontSize=12;exitX=0.5;exitY=1;exitDx=0;exitDy=0;exitPerimeter=0;entryX=0.499;entryY=0.177;entryDx=0;entryDy=0;entryPerimeter=0;" edge="1" parent="1" source="PjSp7jdSA5BGJm08OEUA-5" target="PjSp7jdSA5BGJm08OEUA-6">
          <mxGeometry relative="1" as="geometry">
            <mxPoint x="224" y="232" as="sourcePoint" />
            <mxPoint x="220" y="248" as="targetPoint" />
          </mxGeometry>
        </mxCell>
        <mxCell id="PjSp7jdSA5BGJm08OEUA-14" value="" style="html=1;verticalAlign=bottom;endArrow=open;dashed=1;endSize=8;curved=0;rounded=0;fontSize=12;entryX=0;entryY=0;entryDx=0;entryDy=46;entryPerimeter=0;exitX=0;exitY=0;exitDx=128;exitDy=46;exitPerimeter=0;" edge="1" parent="1" source="PjSp7jdSA5BGJm08OEUA-5" target="PjSp7jdSA5BGJm08OEUA-8">
          <mxGeometry relative="1" as="geometry">
            <mxPoint x="241" y="229" as="sourcePoint" />
            <mxPoint x="161" y="229" as="targetPoint" />
          </mxGeometry>
        </mxCell>
        <mxCell id="PjSp7jdSA5BGJm08OEUA-15" value="" style="html=1;verticalAlign=bottom;endArrow=open;dashed=1;endSize=8;curved=0;rounded=0;fontSize=12;exitX=0;exitY=0;exitDx=128;exitDy=46;exitPerimeter=0;entryX=0.5;entryY=1;entryDx=0;entryDy=0;entryPerimeter=0;" edge="1" parent="1" source="PjSp7jdSA5BGJm08OEUA-6" target="PjSp7jdSA5BGJm08OEUA-8">
          <mxGeometry relative="1" as="geometry">
            <mxPoint x="241" y="229" as="sourcePoint" />
            <mxPoint x="161" y="229" as="targetPoint" />
          </mxGeometry>
        </mxCell>
        <mxCell id="PjSp7jdSA5BGJm08OEUA-16" value="" style="html=1;verticalAlign=bottom;endArrow=open;dashed=1;endSize=8;curved=0;rounded=0;fontSize=12;entryX=0;entryY=0;entryDx=128;entryDy=46;entryPerimeter=0;exitX=0;exitY=0;exitDx=0;exitDy=46;exitPerimeter=0;" edge="1" parent="1" source="PjSp7jdSA5BGJm08OEUA-6" target="PjSp7jdSA5BGJm08OEUA-7">
          <mxGeometry relative="1" as="geometry">
            <mxPoint x="241" y="229" as="sourcePoint" />
            <mxPoint x="161" y="229" as="targetPoint" />
          </mxGeometry>
        </mxCell>
        <mxCell id="PjSp7jdSA5BGJm08OEUA-17" value="OrdersDB" style="shape=cylinder3;whiteSpace=wrap;html=1;boundedLbl=1;backgroundOutline=1;size=15;" vertex="1" parent="1">
          <mxGeometry x="170" y="368" width="60" height="80" as="geometry" />
        </mxCell>
        <mxCell id="PjSp7jdSA5BGJm08OEUA-18" value="" style="html=1;verticalAlign=bottom;endArrow=open;dashed=1;endSize=8;curved=0;rounded=0;fontSize=12;entryX=0.5;entryY=0;entryDx=0;entryDy=0;entryPerimeter=0;exitX=0.5;exitY=1;exitDx=0;exitDy=0;exitPerimeter=0;" edge="1" parent="1" source="PjSp7jdSA5BGJm08OEUA-6" target="PjSp7jdSA5BGJm08OEUA-17">
          <mxGeometry relative="1" as="geometry">
            <mxPoint x="241" y="382" as="sourcePoint" />
            <mxPoint x="161" y="382" as="targetPoint" />
          </mxGeometry>
        </mxCell>
        <mxCell id="PjSp7jdSA5BGJm08OEUA-19" value="" style="html=1;verticalAlign=bottom;endArrow=open;dashed=1;endSize=8;curved=0;rounded=0;fontSize=12;entryX=0;entryY=0;entryDx=84;entryDy=14;entryPerimeter=0;exitX=0;exitY=0;exitDx=128;exitDy=46;exitPerimeter=0;" edge="1" parent="1" source="PjSp7jdSA5BGJm08OEUA-1" target="PjSp7jdSA5BGJm08OEUA-8">
          <mxGeometry relative="1" as="geometry">
            <mxPoint x="241" y="179" as="sourcePoint" />
            <mxPoint x="161" y="179" as="targetPoint" />
          </mxGeometry>
        </mxCell>
      </root>
    </mxGraphModel>
  </diagram>
  <diagram id="JmT1CQ8cXsfUS5jKB0Rc" name="UML_Class_Diagram">
    <mxGraphModel dx="2938" dy="2330" grid="0" gridSize="10" guides="1" tooltips="1" connect="1" arrows="1" fold="1" page="0" pageScale="1" pageWidth="850" pageHeight="1100" math="0" shadow="0">
      <root>
        <mxCell id="0" />
        <mxCell id="1" parent="0" />
        <mxCell id="Czbqzu1dcFvYARV3h8Ns-1" value="BillBLL" style="swimlane;fontStyle=1;align=center;verticalAlign=top;childLayout=stackLayout;horizontal=1;startSize=26;horizontalStack=0;resizeParent=1;resizeParentMax=0;resizeLast=0;collapsible=1;marginBottom=0;whiteSpace=wrap;html=1;" vertex="1" parent="1">
          <mxGeometry x="825" y="498" width="160" height="86" as="geometry" />
        </mxCell>
        <mxCell id="Czbqzu1dcFvYARV3h8Ns-2" value="- billDAO: BillDAO" style="text;strokeColor=none;fillColor=none;align=left;verticalAlign=top;spacingLeft=4;spacingRight=4;overflow=hidden;rotatable=0;points=[[0,0.5],[1,0.5]];portConstraint=eastwest;whiteSpace=wrap;html=1;" vertex="1" parent="Czbqzu1dcFvYARV3h8Ns-1">
          <mxGeometry y="26" width="160" height="26" as="geometry" />
        </mxCell>
        <mxCell id="Czbqzu1dcFvYARV3h8Ns-3" value="" style="line;strokeWidth=1;fillColor=none;align=left;verticalAlign=middle;spacingTop=-1;spacingLeft=3;spacingRight=3;rotatable=0;labelPosition=right;points=[];portConstraint=eastwest;strokeColor=inherit;" vertex="1" parent="Czbqzu1dcFvYARV3h8Ns-1">
          <mxGeometry y="52" width="160" height="8" as="geometry" />
        </mxCell>
        <mxCell id="Czbqzu1dcFvYARV3h8Ns-4" value="+getAllBills(): List&amp;lt;Bill&amp;gt;" style="text;strokeColor=none;fillColor=none;align=left;verticalAlign=top;spacingLeft=4;spacingRight=4;overflow=hidden;rotatable=0;points=[[0,0.5],[1,0.5]];portConstraint=eastwest;whiteSpace=wrap;html=1;" vertex="1" parent="Czbqzu1dcFvYARV3h8Ns-1">
          <mxGeometry y="60" width="160" height="26" as="geometry" />
        </mxCell>
        <mxCell id="Czbqzu1dcFvYARV3h8Ns-5" value="ClientBLL" style="swimlane;fontStyle=1;align=center;verticalAlign=top;childLayout=stackLayout;horizontal=1;startSize=26;horizontalStack=0;resizeParent=1;resizeParentMax=0;resizeLast=0;collapsible=1;marginBottom=0;whiteSpace=wrap;html=1;" vertex="1" parent="1">
          <mxGeometry x="-161" y="484" width="216" height="178" as="geometry" />
        </mxCell>
        <mxCell id="Czbqzu1dcFvYARV3h8Ns-6" value="-clientDAO: ClientDAO" style="text;strokeColor=none;fillColor=none;align=left;verticalAlign=top;spacingLeft=4;spacingRight=4;overflow=hidden;rotatable=0;points=[[0,0.5],[1,0.5]];portConstraint=eastwest;whiteSpace=wrap;html=1;" vertex="1" parent="Czbqzu1dcFvYARV3h8Ns-5">
          <mxGeometry y="26" width="216" height="26" as="geometry" />
        </mxCell>
        <mxCell id="Czbqzu1dcFvYARV3h8Ns-7" value="" style="line;strokeWidth=1;fillColor=none;align=left;verticalAlign=middle;spacingTop=-1;spacingLeft=3;spacingRight=3;rotatable=0;labelPosition=right;points=[];portConstraint=eastwest;strokeColor=inherit;" vertex="1" parent="Czbqzu1dcFvYARV3h8Ns-5">
          <mxGeometry y="52" width="216" height="8" as="geometry" />
        </mxCell>
        <mxCell id="Czbqzu1dcFvYARV3h8Ns-8" value="+ getAllCleints(): List&amp;lt;Client&amp;gt;&lt;div&gt;+ getAllActiveClients(): List&amp;lt;Client&amp;gt;&lt;/div&gt;&lt;div&gt;+ addClient(client: Client): void&lt;/div&gt;&lt;div&gt;+ updateClient(client: Client): void&lt;/div&gt;&lt;div&gt;+ softDeleteClient(client: Client): void&lt;/div&gt;&lt;div&gt;+ findById(id: int): Client&lt;/div&gt;&lt;div&gt;+ hardDeleteById(id: int): void&lt;/div&gt;" style="text;strokeColor=none;fillColor=none;align=left;verticalAlign=top;spacingLeft=4;spacingRight=4;overflow=hidden;rotatable=0;points=[[0,0.5],[1,0.5]];portConstraint=eastwest;whiteSpace=wrap;html=1;" vertex="1" parent="Czbqzu1dcFvYARV3h8Ns-5">
          <mxGeometry y="60" width="216" height="118" as="geometry" />
        </mxCell>
        <mxCell id="Czbqzu1dcFvYARV3h8Ns-9" value="OrderBLL" style="swimlane;fontStyle=1;align=center;verticalAlign=top;childLayout=stackLayout;horizontal=1;startSize=26;horizontalStack=0;resizeParent=1;resizeParentMax=0;resizeLast=0;collapsible=1;marginBottom=0;whiteSpace=wrap;html=1;" vertex="1" parent="1">
          <mxGeometry x="114.5" y="484" width="221" height="148" as="geometry" />
        </mxCell>
        <mxCell id="Czbqzu1dcFvYARV3h8Ns-10" value="- orderDAO: OrderDAO&lt;div&gt;- productDAO: productDAO&lt;/div&gt;&lt;div&gt;- clientDAO: ClientDAO&lt;/div&gt;&lt;div&gt;- billDAO: BillDAO&lt;/div&gt;" style="text;strokeColor=none;fillColor=none;align=left;verticalAlign=top;spacingLeft=4;spacingRight=4;overflow=hidden;rotatable=0;points=[[0,0.5],[1,0.5]];portConstraint=eastwest;whiteSpace=wrap;html=1;" vertex="1" parent="Czbqzu1dcFvYARV3h8Ns-9">
          <mxGeometry y="26" width="221" height="69" as="geometry" />
        </mxCell>
        <mxCell id="Czbqzu1dcFvYARV3h8Ns-11" value="" style="line;strokeWidth=1;fillColor=none;align=left;verticalAlign=middle;spacingTop=-1;spacingLeft=3;spacingRight=3;rotatable=0;labelPosition=right;points=[];portConstraint=eastwest;strokeColor=inherit;" vertex="1" parent="Czbqzu1dcFvYARV3h8Ns-9">
          <mxGeometry y="95" width="221" height="8" as="geometry" />
        </mxCell>
        <mxCell id="Czbqzu1dcFvYARV3h8Ns-12" value="+ getAllOrders(): List&amp;lt;Orders&amp;gt;&lt;div&gt;+placeOrder(order Orders): String&lt;/div&gt;&lt;div&gt;&lt;br&gt;&lt;/div&gt;" style="text;strokeColor=none;fillColor=none;align=left;verticalAlign=top;spacingLeft=4;spacingRight=4;overflow=hidden;rotatable=0;points=[[0,0.5],[1,0.5]];portConstraint=eastwest;whiteSpace=wrap;html=1;" vertex="1" parent="Czbqzu1dcFvYARV3h8Ns-9">
          <mxGeometry y="103" width="221" height="45" as="geometry" />
        </mxCell>
        <mxCell id="Czbqzu1dcFvYARV3h8Ns-13" value="ProductBLL" style="swimlane;fontStyle=1;align=center;verticalAlign=top;childLayout=stackLayout;horizontal=1;startSize=26;horizontalStack=0;resizeParent=1;resizeParentMax=0;resizeLast=0;collapsible=1;marginBottom=0;whiteSpace=wrap;html=1;" vertex="1" parent="1">
          <mxGeometry x="436" y="484" width="248" height="180" as="geometry" />
        </mxCell>
        <mxCell id="Czbqzu1dcFvYARV3h8Ns-14" value="- productDAO: ProductDAO" style="text;strokeColor=none;fillColor=none;align=left;verticalAlign=top;spacingLeft=4;spacingRight=4;overflow=hidden;rotatable=0;points=[[0,0.5],[1,0.5]];portConstraint=eastwest;whiteSpace=wrap;html=1;" vertex="1" parent="Czbqzu1dcFvYARV3h8Ns-13">
          <mxGeometry y="26" width="248" height="26" as="geometry" />
        </mxCell>
        <mxCell id="Czbqzu1dcFvYARV3h8Ns-15" value="" style="line;strokeWidth=1;fillColor=none;align=left;verticalAlign=middle;spacingTop=-1;spacingLeft=3;spacingRight=3;rotatable=0;labelPosition=right;points=[];portConstraint=eastwest;strokeColor=inherit;" vertex="1" parent="Czbqzu1dcFvYARV3h8Ns-13">
          <mxGeometry y="52" width="248" height="8" as="geometry" />
        </mxCell>
        <mxCell id="Czbqzu1dcFvYARV3h8Ns-16" value="+ getAllProducts(): List&amp;lt;Product&amp;gt;&lt;div&gt;+ getAllActiveProducts(): List&amp;lt;Product&amp;gt;&lt;/div&gt;&lt;div&gt;+ addProduct(product Product): void&lt;/div&gt;&lt;div&gt;+ updateProduct(product Product): void&lt;/div&gt;&lt;div&gt;+ softDeleteProduct(product Product) void&lt;/div&gt;&lt;div&gt;+ findById(id: int): Product&lt;/div&gt;&lt;div&gt;+ hardDeleteById(id: int): void&lt;/div&gt;" style="text;strokeColor=none;fillColor=none;align=left;verticalAlign=top;spacingLeft=4;spacingRight=4;overflow=hidden;rotatable=0;points=[[0,0.5],[1,0.5]];portConstraint=eastwest;whiteSpace=wrap;html=1;" vertex="1" parent="Czbqzu1dcFvYARV3h8Ns-13">
          <mxGeometry y="60" width="248" height="120" as="geometry" />
        </mxCell>
        <mxCell id="Czbqzu1dcFvYARV3h8Ns-17" value="ConnectionFactory" style="swimlane;fontStyle=1;align=center;verticalAlign=top;childLayout=stackLayout;horizontal=1;startSize=26;horizontalStack=0;resizeParent=1;resizeParentMax=0;resizeLast=0;collapsible=1;marginBottom=0;whiteSpace=wrap;html=1;" vertex="1" parent="1">
          <mxGeometry x="394.5" y="-547" width="234" height="207" as="geometry" />
        </mxCell>
        <mxCell id="Czbqzu1dcFvYARV3h8Ns-18" value="- LOGGER: Logger&lt;div&gt;- DRIVER: String&lt;/div&gt;&lt;div&gt;- DBURL: String&lt;/div&gt;&lt;div&gt;- USER: String&lt;/div&gt;&lt;div&gt;- PASS: String&lt;/div&gt;" style="text;strokeColor=none;fillColor=none;align=left;verticalAlign=top;spacingLeft=4;spacingRight=4;overflow=hidden;rotatable=0;points=[[0,0.5],[1,0.5]];portConstraint=eastwest;whiteSpace=wrap;html=1;" vertex="1" parent="Czbqzu1dcFvYARV3h8Ns-17">
          <mxGeometry y="26" width="234" height="85" as="geometry" />
        </mxCell>
        <mxCell id="Czbqzu1dcFvYARV3h8Ns-19" value="" style="line;strokeWidth=1;fillColor=none;align=left;verticalAlign=middle;spacingTop=-1;spacingLeft=3;spacingRight=3;rotatable=0;labelPosition=right;points=[];portConstraint=eastwest;strokeColor=inherit;" vertex="1" parent="Czbqzu1dcFvYARV3h8Ns-17">
          <mxGeometry y="111" width="234" height="8" as="geometry" />
        </mxCell>
        <mxCell id="Czbqzu1dcFvYARV3h8Ns-20" value="+ createConection(): Connection&lt;div&gt;+ getCOnnection(): Connection&lt;/div&gt;&lt;div&gt;+ close(connection: Connection): void&lt;/div&gt;&lt;div&gt;+close(statement: Statement): void&lt;/div&gt;&lt;div&gt;+ close(resultSet: ResultSet): void&lt;/div&gt;" style="text;strokeColor=none;fillColor=none;align=left;verticalAlign=top;spacingLeft=4;spacingRight=4;overflow=hidden;rotatable=0;points=[[0,0.5],[1,0.5]];portConstraint=eastwest;whiteSpace=wrap;html=1;" vertex="1" parent="Czbqzu1dcFvYARV3h8Ns-17">
          <mxGeometry y="119" width="234" height="88" as="geometry" />
        </mxCell>
        <mxCell id="Czbqzu1dcFvYARV3h8Ns-21" value="AbstractDAO" style="swimlane;fontStyle=1;align=center;verticalAlign=top;childLayout=stackLayout;horizontal=1;startSize=26;horizontalStack=0;resizeParent=1;resizeParentMax=0;resizeLast=0;collapsible=1;marginBottom=0;whiteSpace=wrap;html=1;" vertex="1" parent="1">
          <mxGeometry x="19" y="-156" width="443" height="322" as="geometry" />
        </mxCell>
        <mxCell id="Czbqzu1dcFvYARV3h8Ns-22" value="- LOGGER: Logger&lt;div&gt;-type Class&amp;lt;T&amp;gt;&lt;/div&gt;" style="text;strokeColor=none;fillColor=none;align=left;verticalAlign=top;spacingLeft=4;spacingRight=4;overflow=hidden;rotatable=0;points=[[0,0.5],[1,0.5]];portConstraint=eastwest;whiteSpace=wrap;html=1;" vertex="1" parent="Czbqzu1dcFvYARV3h8Ns-21">
          <mxGeometry y="26" width="443" height="40" as="geometry" />
        </mxCell>
        <mxCell id="Czbqzu1dcFvYARV3h8Ns-23" value="" style="line;strokeWidth=1;fillColor=none;align=left;verticalAlign=middle;spacingTop=-1;spacingLeft=3;spacingRight=3;rotatable=0;labelPosition=right;points=[];portConstraint=eastwest;strokeColor=inherit;" vertex="1" parent="Czbqzu1dcFvYARV3h8Ns-21">
          <mxGeometry y="66" width="443" height="8" as="geometry" />
        </mxCell>
        <mxCell id="Czbqzu1dcFvYARV3h8Ns-24" value="- createSelectQuery(field: String): String&lt;div&gt;- createInsertQuery(fields: StringBuilder, values: StringBuilder): String&lt;/div&gt;&lt;div&gt;- createUpdateQuery(): String&lt;/div&gt;&lt;div&gt;+ findAll(): List&amp;lt;T&amp;gt;&lt;/div&gt;&lt;div&gt;+ findById(id: int): T&lt;/div&gt;&lt;div&gt;+ createObjects(resultSet ResultSet): List&amp;lt;T&amp;gt;&lt;/div&gt;&lt;div&gt;- getNoArgsCOnstructor(): Constructor&amp;lt;?&amp;gt;&lt;/div&gt;&lt;div&gt;- populateFieldsFromResultSet(instance T, resultSet ResultSet): void&lt;/div&gt;&lt;div&gt;+ insert(object T): void&lt;/div&gt;&lt;div&gt;- setPreparedStatementVlaues(statement PreparedStatement, fields Field[], object T): void&lt;/div&gt;&lt;div&gt;- setGeneratedId(statement PreparedSttaement, object T): void&lt;/div&gt;&lt;div&gt;+ update(object T): void&lt;/div&gt;&lt;div&gt;- setUpdateStatementValues(statement: PreparedStatement, object: T): void&lt;/div&gt;&lt;div&gt;+ softDelete(object T): void&lt;/div&gt;&lt;div&gt;+ hardDeleteByID(id: int): void&lt;/div&gt;" style="text;strokeColor=none;fillColor=none;align=left;verticalAlign=top;spacingLeft=4;spacingRight=4;overflow=hidden;rotatable=0;points=[[0,0.5],[1,0.5]];portConstraint=eastwest;whiteSpace=wrap;html=1;" vertex="1" parent="Czbqzu1dcFvYARV3h8Ns-21">
          <mxGeometry y="74" width="443" height="248" as="geometry" />
        </mxCell>
        <mxCell id="Czbqzu1dcFvYARV3h8Ns-25" value="BillDAO" style="swimlane;fontStyle=1;align=center;verticalAlign=top;childLayout=stackLayout;horizontal=1;startSize=26;horizontalStack=0;resizeParent=1;resizeParentMax=0;resizeLast=0;collapsible=1;marginBottom=0;whiteSpace=wrap;html=1;" vertex="1" parent="1">
          <mxGeometry x="726" y="200" width="161" height="107" as="geometry" />
        </mxCell>
        <mxCell id="Czbqzu1dcFvYARV3h8Ns-26" value="." style="text;strokeColor=none;fillColor=none;align=left;verticalAlign=top;spacingLeft=4;spacingRight=4;overflow=hidden;rotatable=0;points=[[0,0.5],[1,0.5]];portConstraint=eastwest;whiteSpace=wrap;html=1;" vertex="1" parent="Czbqzu1dcFvYARV3h8Ns-25">
          <mxGeometry y="26" width="161" height="26" as="geometry" />
        </mxCell>
        <mxCell id="Czbqzu1dcFvYARV3h8Ns-27" value="" style="line;strokeWidth=1;fillColor=none;align=left;verticalAlign=middle;spacingTop=-1;spacingLeft=3;spacingRight=3;rotatable=0;labelPosition=right;points=[];portConstraint=eastwest;strokeColor=inherit;" vertex="1" parent="Czbqzu1dcFvYARV3h8Ns-25">
          <mxGeometry y="52" width="161" height="8" as="geometry" />
        </mxCell>
        <mxCell id="Czbqzu1dcFvYARV3h8Ns-28" value="+ insert(bill Bill): void&lt;div&gt;+ findAll(): List&amp;lt;Bill&amp;gt;&lt;/div&gt;" style="text;strokeColor=none;fillColor=none;align=left;verticalAlign=top;spacingLeft=4;spacingRight=4;overflow=hidden;rotatable=0;points=[[0,0.5],[1,0.5]];portConstraint=eastwest;whiteSpace=wrap;html=1;" vertex="1" parent="Czbqzu1dcFvYARV3h8Ns-25">
          <mxGeometry y="60" width="161" height="47" as="geometry" />
        </mxCell>
        <mxCell id="Czbqzu1dcFvYARV3h8Ns-29" value="ClientDAO" style="swimlane;fontStyle=1;align=center;verticalAlign=top;childLayout=stackLayout;horizontal=1;startSize=26;horizontalStack=0;resizeParent=1;resizeParentMax=0;resizeLast=0;collapsible=1;marginBottom=0;whiteSpace=wrap;html=1;" vertex="1" parent="1">
          <mxGeometry x="-97" y="263" width="160" height="86" as="geometry" />
        </mxCell>
        <mxCell id="Czbqzu1dcFvYARV3h8Ns-30" value="." style="text;strokeColor=none;fillColor=none;align=left;verticalAlign=top;spacingLeft=4;spacingRight=4;overflow=hidden;rotatable=0;points=[[0,0.5],[1,0.5]];portConstraint=eastwest;whiteSpace=wrap;html=1;" vertex="1" parent="Czbqzu1dcFvYARV3h8Ns-29">
          <mxGeometry y="26" width="160" height="26" as="geometry" />
        </mxCell>
        <mxCell id="Czbqzu1dcFvYARV3h8Ns-31" value="" style="line;strokeWidth=1;fillColor=none;align=left;verticalAlign=middle;spacingTop=-1;spacingLeft=3;spacingRight=3;rotatable=0;labelPosition=right;points=[];portConstraint=eastwest;strokeColor=inherit;" vertex="1" parent="Czbqzu1dcFvYARV3h8Ns-29">
          <mxGeometry y="52" width="160" height="8" as="geometry" />
        </mxCell>
        <mxCell id="Czbqzu1dcFvYARV3h8Ns-32" value="." style="text;strokeColor=none;fillColor=none;align=left;verticalAlign=top;spacingLeft=4;spacingRight=4;overflow=hidden;rotatable=0;points=[[0,0.5],[1,0.5]];portConstraint=eastwest;whiteSpace=wrap;html=1;" vertex="1" parent="Czbqzu1dcFvYARV3h8Ns-29">
          <mxGeometry y="60" width="160" height="26" as="geometry" />
        </mxCell>
        <mxCell id="Czbqzu1dcFvYARV3h8Ns-33" value="OrderDAO" style="swimlane;fontStyle=1;align=center;verticalAlign=top;childLayout=stackLayout;horizontal=1;startSize=26;horizontalStack=0;resizeParent=1;resizeParentMax=0;resizeLast=0;collapsible=1;marginBottom=0;whiteSpace=wrap;html=1;" vertex="1" parent="1">
          <mxGeometry x="145" y="263" width="160" height="86" as="geometry" />
        </mxCell>
        <mxCell id="Czbqzu1dcFvYARV3h8Ns-34" value="." style="text;strokeColor=none;fillColor=none;align=left;verticalAlign=top;spacingLeft=4;spacingRight=4;overflow=hidden;rotatable=0;points=[[0,0.5],[1,0.5]];portConstraint=eastwest;whiteSpace=wrap;html=1;" vertex="1" parent="Czbqzu1dcFvYARV3h8Ns-33">
          <mxGeometry y="26" width="160" height="26" as="geometry" />
        </mxCell>
        <mxCell id="Czbqzu1dcFvYARV3h8Ns-35" value="" style="line;strokeWidth=1;fillColor=none;align=left;verticalAlign=middle;spacingTop=-1;spacingLeft=3;spacingRight=3;rotatable=0;labelPosition=right;points=[];portConstraint=eastwest;strokeColor=inherit;" vertex="1" parent="Czbqzu1dcFvYARV3h8Ns-33">
          <mxGeometry y="52" width="160" height="8" as="geometry" />
        </mxCell>
        <mxCell id="Czbqzu1dcFvYARV3h8Ns-36" value="." style="text;strokeColor=none;fillColor=none;align=left;verticalAlign=top;spacingLeft=4;spacingRight=4;overflow=hidden;rotatable=0;points=[[0,0.5],[1,0.5]];portConstraint=eastwest;whiteSpace=wrap;html=1;" vertex="1" parent="Czbqzu1dcFvYARV3h8Ns-33">
          <mxGeometry y="60" width="160" height="26" as="geometry" />
        </mxCell>
        <mxCell id="Czbqzu1dcFvYARV3h8Ns-37" value="ProductDAO" style="swimlane;fontStyle=1;align=center;verticalAlign=top;childLayout=stackLayout;horizontal=1;startSize=26;horizontalStack=0;resizeParent=1;resizeParentMax=0;resizeLast=0;collapsible=1;marginBottom=0;whiteSpace=wrap;html=1;" vertex="1" parent="1">
          <mxGeometry x="381" y="263" width="160" height="86" as="geometry" />
        </mxCell>
        <mxCell id="Czbqzu1dcFvYARV3h8Ns-38" value="." style="text;strokeColor=none;fillColor=none;align=left;verticalAlign=top;spacingLeft=4;spacingRight=4;overflow=hidden;rotatable=0;points=[[0,0.5],[1,0.5]];portConstraint=eastwest;whiteSpace=wrap;html=1;" vertex="1" parent="Czbqzu1dcFvYARV3h8Ns-37">
          <mxGeometry y="26" width="160" height="26" as="geometry" />
        </mxCell>
        <mxCell id="Czbqzu1dcFvYARV3h8Ns-39" value="" style="line;strokeWidth=1;fillColor=none;align=left;verticalAlign=middle;spacingTop=-1;spacingLeft=3;spacingRight=3;rotatable=0;labelPosition=right;points=[];portConstraint=eastwest;strokeColor=inherit;" vertex="1" parent="Czbqzu1dcFvYARV3h8Ns-37">
          <mxGeometry y="52" width="160" height="8" as="geometry" />
        </mxCell>
        <mxCell id="Czbqzu1dcFvYARV3h8Ns-40" value="." style="text;strokeColor=none;fillColor=none;align=left;verticalAlign=top;spacingLeft=4;spacingRight=4;overflow=hidden;rotatable=0;points=[[0,0.5],[1,0.5]];portConstraint=eastwest;whiteSpace=wrap;html=1;" vertex="1" parent="Czbqzu1dcFvYARV3h8Ns-37">
          <mxGeometry y="60" width="160" height="26" as="geometry" />
        </mxCell>
        <mxCell id="Czbqzu1dcFvYARV3h8Ns-41" value="Bill" style="swimlane;fontStyle=1;align=center;verticalAlign=top;childLayout=stackLayout;horizontal=1;startSize=26;horizontalStack=0;resizeParent=1;resizeParentMax=0;resizeLast=0;collapsible=1;marginBottom=0;whiteSpace=wrap;html=1;" vertex="1" parent="1">
          <mxGeometry x="825" y="798" width="170" height="127" as="geometry" />
        </mxCell>
        <mxCell id="Czbqzu1dcFvYARV3h8Ns-42" value="+ id: Int&lt;div&gt;+ orderId: int&lt;/div&gt;&lt;div&gt;+ clientName: String&lt;/div&gt;&lt;div&gt;+ productName: String&lt;/div&gt;&lt;div&gt;+ quantity: int&lt;/div&gt;&lt;div&gt;+ totalPrice: double&lt;/div&gt;&lt;div&gt;&lt;br&gt;&lt;/div&gt;" style="text;strokeColor=none;fillColor=none;align=left;verticalAlign=top;spacingLeft=4;spacingRight=4;overflow=hidden;rotatable=0;points=[[0,0.5],[1,0.5]];portConstraint=eastwest;whiteSpace=wrap;html=1;" vertex="1" parent="Czbqzu1dcFvYARV3h8Ns-41">
          <mxGeometry y="26" width="170" height="93" as="geometry" />
        </mxCell>
        <mxCell id="Czbqzu1dcFvYARV3h8Ns-43" value="" style="line;strokeWidth=1;fillColor=none;align=left;verticalAlign=middle;spacingTop=-1;spacingLeft=3;spacingRight=3;rotatable=0;labelPosition=right;points=[];portConstraint=eastwest;strokeColor=inherit;" vertex="1" parent="Czbqzu1dcFvYARV3h8Ns-41">
          <mxGeometry y="119" width="170" height="8" as="geometry" />
        </mxCell>
        <mxCell id="Czbqzu1dcFvYARV3h8Ns-45" value="Client" style="swimlane;fontStyle=1;align=center;verticalAlign=top;childLayout=stackLayout;horizontal=1;startSize=26;horizontalStack=0;resizeParent=1;resizeParentMax=0;resizeLast=0;collapsible=1;marginBottom=0;whiteSpace=wrap;html=1;" vertex="1" parent="1">
          <mxGeometry x="-153" y="781" width="160" height="172" as="geometry" />
        </mxCell>
        <mxCell id="Czbqzu1dcFvYARV3h8Ns-46" value="- id: int&lt;div&gt;- name: String&lt;/div&gt;&lt;div&gt;- address: String&lt;/div&gt;&lt;div&gt;- email: String&lt;/div&gt;&lt;div&gt;- phone: String&lt;/div&gt;&lt;div&gt;- status: Status&lt;/div&gt;" style="text;strokeColor=none;fillColor=none;align=left;verticalAlign=top;spacingLeft=4;spacingRight=4;overflow=hidden;rotatable=0;points=[[0,0.5],[1,0.5]];portConstraint=eastwest;whiteSpace=wrap;html=1;" vertex="1" parent="Czbqzu1dcFvYARV3h8Ns-45">
          <mxGeometry y="26" width="160" height="112" as="geometry" />
        </mxCell>
        <mxCell id="Czbqzu1dcFvYARV3h8Ns-47" value="" style="line;strokeWidth=1;fillColor=none;align=left;verticalAlign=middle;spacingTop=-1;spacingLeft=3;spacingRight=3;rotatable=0;labelPosition=right;points=[];portConstraint=eastwest;strokeColor=inherit;" vertex="1" parent="Czbqzu1dcFvYARV3h8Ns-45">
          <mxGeometry y="138" width="160" height="8" as="geometry" />
        </mxCell>
        <mxCell id="Czbqzu1dcFvYARV3h8Ns-48" value="." style="text;strokeColor=none;fillColor=none;align=left;verticalAlign=top;spacingLeft=4;spacingRight=4;overflow=hidden;rotatable=0;points=[[0,0.5],[1,0.5]];portConstraint=eastwest;whiteSpace=wrap;html=1;" vertex="1" parent="Czbqzu1dcFvYARV3h8Ns-45">
          <mxGeometry y="146" width="160" height="26" as="geometry" />
        </mxCell>
        <mxCell id="Czbqzu1dcFvYARV3h8Ns-49" value="Orders" style="swimlane;fontStyle=1;align=center;verticalAlign=top;childLayout=stackLayout;horizontal=1;startSize=26;horizontalStack=0;resizeParent=1;resizeParentMax=0;resizeLast=0;collapsible=1;marginBottom=0;whiteSpace=wrap;html=1;" vertex="1" parent="1">
          <mxGeometry x="138" y="811" width="160" height="129" as="geometry" />
        </mxCell>
        <mxCell id="Czbqzu1dcFvYARV3h8Ns-50" value="- id: int&lt;div&gt;- clientId: int&lt;/div&gt;&lt;div&gt;- productId: int&lt;/div&gt;&lt;div&gt;- quantitiy: int&lt;/div&gt;" style="text;strokeColor=none;fillColor=none;align=left;verticalAlign=top;spacingLeft=4;spacingRight=4;overflow=hidden;rotatable=0;points=[[0,0.5],[1,0.5]];portConstraint=eastwest;whiteSpace=wrap;html=1;" vertex="1" parent="Czbqzu1dcFvYARV3h8Ns-49">
          <mxGeometry y="26" width="160" height="69" as="geometry" />
        </mxCell>
        <mxCell id="Czbqzu1dcFvYARV3h8Ns-51" value="" style="line;strokeWidth=1;fillColor=none;align=left;verticalAlign=middle;spacingTop=-1;spacingLeft=3;spacingRight=3;rotatable=0;labelPosition=right;points=[];portConstraint=eastwest;strokeColor=inherit;" vertex="1" parent="Czbqzu1dcFvYARV3h8Ns-49">
          <mxGeometry y="95" width="160" height="8" as="geometry" />
        </mxCell>
        <mxCell id="Czbqzu1dcFvYARV3h8Ns-52" value="." style="text;strokeColor=none;fillColor=none;align=left;verticalAlign=top;spacingLeft=4;spacingRight=4;overflow=hidden;rotatable=0;points=[[0,0.5],[1,0.5]];portConstraint=eastwest;whiteSpace=wrap;html=1;" vertex="1" parent="Czbqzu1dcFvYARV3h8Ns-49">
          <mxGeometry y="103" width="160" height="26" as="geometry" />
        </mxCell>
        <mxCell id="Czbqzu1dcFvYARV3h8Ns-53" value="Product" style="swimlane;fontStyle=1;align=center;verticalAlign=top;childLayout=stackLayout;horizontal=1;startSize=26;horizontalStack=0;resizeParent=1;resizeParentMax=0;resizeLast=0;collapsible=1;marginBottom=0;whiteSpace=wrap;html=1;" vertex="1" parent="1">
          <mxGeometry x="534" y="794" width="160" height="146" as="geometry" />
        </mxCell>
        <mxCell id="Czbqzu1dcFvYARV3h8Ns-54" value="- id: int&amp;nbsp;&lt;div&gt;- name: String&lt;/div&gt;&lt;div&gt;- quantity: int&lt;/div&gt;&lt;div&gt;- price: double&lt;/div&gt;&lt;div&gt;- status: Status&lt;/div&gt;" style="text;strokeColor=none;fillColor=none;align=left;verticalAlign=top;spacingLeft=4;spacingRight=4;overflow=hidden;rotatable=0;points=[[0,0.5],[1,0.5]];portConstraint=eastwest;whiteSpace=wrap;html=1;" vertex="1" parent="Czbqzu1dcFvYARV3h8Ns-53">
          <mxGeometry y="26" width="160" height="86" as="geometry" />
        </mxCell>
        <mxCell id="Czbqzu1dcFvYARV3h8Ns-55" value="" style="line;strokeWidth=1;fillColor=none;align=left;verticalAlign=middle;spacingTop=-1;spacingLeft=3;spacingRight=3;rotatable=0;labelPosition=right;points=[];portConstraint=eastwest;strokeColor=inherit;" vertex="1" parent="Czbqzu1dcFvYARV3h8Ns-53">
          <mxGeometry y="112" width="160" height="8" as="geometry" />
        </mxCell>
        <mxCell id="Czbqzu1dcFvYARV3h8Ns-56" value="." style="text;strokeColor=none;fillColor=none;align=left;verticalAlign=top;spacingLeft=4;spacingRight=4;overflow=hidden;rotatable=0;points=[[0,0.5],[1,0.5]];portConstraint=eastwest;whiteSpace=wrap;html=1;" vertex="1" parent="Czbqzu1dcFvYARV3h8Ns-53">
          <mxGeometry y="120" width="160" height="26" as="geometry" />
        </mxCell>
        <mxCell id="Czbqzu1dcFvYARV3h8Ns-57" value="Status&amp;nbsp;&lt;div&gt;(enum)&lt;/div&gt;" style="swimlane;fontStyle=1;align=center;verticalAlign=top;childLayout=stackLayout;horizontal=1;startSize=41;horizontalStack=0;resizeParent=1;resizeParentMax=0;resizeLast=0;collapsible=1;marginBottom=0;whiteSpace=wrap;html=1;" vertex="1" parent="1">
          <mxGeometry x="160.5" y="1079" width="160" height="87" as="geometry" />
        </mxCell>
        <mxCell id="Czbqzu1dcFvYARV3h8Ns-58" value="ACTIVE&lt;div&gt;DELETED&lt;/div&gt;" style="text;strokeColor=none;fillColor=none;align=left;verticalAlign=top;spacingLeft=4;spacingRight=4;overflow=hidden;rotatable=0;points=[[0,0.5],[1,0.5]];portConstraint=eastwest;whiteSpace=wrap;html=1;" vertex="1" parent="Czbqzu1dcFvYARV3h8Ns-57">
          <mxGeometry y="41" width="160" height="38" as="geometry" />
        </mxCell>
        <mxCell id="Czbqzu1dcFvYARV3h8Ns-59" value="" style="line;strokeWidth=1;fillColor=none;align=left;verticalAlign=middle;spacingTop=-1;spacingLeft=3;spacingRight=3;rotatable=0;labelPosition=right;points=[];portConstraint=eastwest;strokeColor=inherit;" vertex="1" parent="Czbqzu1dcFvYARV3h8Ns-57">
          <mxGeometry y="79" width="160" height="8" as="geometry" />
        </mxCell>
        <mxCell id="Czbqzu1dcFvYARV3h8Ns-61" value="BillPanel" style="swimlane;fontStyle=1;align=center;verticalAlign=top;childLayout=stackLayout;horizontal=1;startSize=26;horizontalStack=0;resizeParent=1;resizeParentMax=0;resizeLast=0;collapsible=1;marginBottom=0;whiteSpace=wrap;html=1;" vertex="1" parent="1">
          <mxGeometry x="1878" y="-160" width="160" height="86" as="geometry" />
        </mxCell>
        <mxCell id="Czbqzu1dcFvYARV3h8Ns-62" value="- billBLL: BillBLL" style="text;strokeColor=none;fillColor=none;align=left;verticalAlign=top;spacingLeft=4;spacingRight=4;overflow=hidden;rotatable=0;points=[[0,0.5],[1,0.5]];portConstraint=eastwest;whiteSpace=wrap;html=1;" vertex="1" parent="Czbqzu1dcFvYARV3h8Ns-61">
          <mxGeometry y="26" width="160" height="26" as="geometry" />
        </mxCell>
        <mxCell id="Czbqzu1dcFvYARV3h8Ns-63" value="" style="line;strokeWidth=1;fillColor=none;align=left;verticalAlign=middle;spacingTop=-1;spacingLeft=3;spacingRight=3;rotatable=0;labelPosition=right;points=[];portConstraint=eastwest;strokeColor=inherit;" vertex="1" parent="Czbqzu1dcFvYARV3h8Ns-61">
          <mxGeometry y="52" width="160" height="8" as="geometry" />
        </mxCell>
        <mxCell id="Czbqzu1dcFvYARV3h8Ns-64" value="." style="text;strokeColor=none;fillColor=none;align=left;verticalAlign=top;spacingLeft=4;spacingRight=4;overflow=hidden;rotatable=0;points=[[0,0.5],[1,0.5]];portConstraint=eastwest;whiteSpace=wrap;html=1;" vertex="1" parent="Czbqzu1dcFvYARV3h8Ns-61">
          <mxGeometry y="60" width="160" height="26" as="geometry" />
        </mxCell>
        <mxCell id="Czbqzu1dcFvYARV3h8Ns-65" value="CleintPanel" style="swimlane;fontStyle=1;align=center;verticalAlign=top;childLayout=stackLayout;horizontal=1;startSize=26;horizontalStack=0;resizeParent=1;resizeParentMax=0;resizeLast=0;collapsible=1;marginBottom=0;whiteSpace=wrap;html=1;" vertex="1" parent="1">
          <mxGeometry x="1279" y="-160" width="160" height="86" as="geometry" />
        </mxCell>
        <mxCell id="Czbqzu1dcFvYARV3h8Ns-66" value="- clientBLL: ClientBLL" style="text;strokeColor=none;fillColor=none;align=left;verticalAlign=top;spacingLeft=4;spacingRight=4;overflow=hidden;rotatable=0;points=[[0,0.5],[1,0.5]];portConstraint=eastwest;whiteSpace=wrap;html=1;" vertex="1" parent="Czbqzu1dcFvYARV3h8Ns-65">
          <mxGeometry y="26" width="160" height="26" as="geometry" />
        </mxCell>
        <mxCell id="Czbqzu1dcFvYARV3h8Ns-67" value="" style="line;strokeWidth=1;fillColor=none;align=left;verticalAlign=middle;spacingTop=-1;spacingLeft=3;spacingRight=3;rotatable=0;labelPosition=right;points=[];portConstraint=eastwest;strokeColor=inherit;" vertex="1" parent="Czbqzu1dcFvYARV3h8Ns-65">
          <mxGeometry y="52" width="160" height="8" as="geometry" />
        </mxCell>
        <mxCell id="Czbqzu1dcFvYARV3h8Ns-68" value="." style="text;strokeColor=none;fillColor=none;align=left;verticalAlign=top;spacingLeft=4;spacingRight=4;overflow=hidden;rotatable=0;points=[[0,0.5],[1,0.5]];portConstraint=eastwest;whiteSpace=wrap;html=1;" vertex="1" parent="Czbqzu1dcFvYARV3h8Ns-65">
          <mxGeometry y="60" width="160" height="26" as="geometry" />
        </mxCell>
        <mxCell id="Czbqzu1dcFvYARV3h8Ns-69" value="MainFrame" style="swimlane;fontStyle=1;align=center;verticalAlign=top;childLayout=stackLayout;horizontal=1;startSize=26;horizontalStack=0;resizeParent=1;resizeParentMax=0;resizeLast=0;collapsible=1;marginBottom=0;whiteSpace=wrap;html=1;" vertex="1" parent="1">
          <mxGeometry x="1274" y="-455" width="196" height="134" as="geometry" />
        </mxCell>
        <mxCell id="Czbqzu1dcFvYARV3h8Ns-70" value="- clientPanel: ClientPanel&lt;div&gt;- productPanel: ProductPanel&lt;/div&gt;&lt;div&gt;- orderPanel: OrderPanel&lt;/div&gt;&lt;div&gt;- billPanel: Bill Panel&lt;/div&gt;" style="text;strokeColor=none;fillColor=none;align=left;verticalAlign=top;spacingLeft=4;spacingRight=4;overflow=hidden;rotatable=0;points=[[0,0.5],[1,0.5]];portConstraint=eastwest;whiteSpace=wrap;html=1;" vertex="1" parent="Czbqzu1dcFvYARV3h8Ns-69">
          <mxGeometry y="26" width="196" height="74" as="geometry" />
        </mxCell>
        <mxCell id="Czbqzu1dcFvYARV3h8Ns-71" value="" style="line;strokeWidth=1;fillColor=none;align=left;verticalAlign=middle;spacingTop=-1;spacingLeft=3;spacingRight=3;rotatable=0;labelPosition=right;points=[];portConstraint=eastwest;strokeColor=inherit;" vertex="1" parent="Czbqzu1dcFvYARV3h8Ns-69">
          <mxGeometry y="100" width="196" height="8" as="geometry" />
        </mxCell>
        <mxCell id="Czbqzu1dcFvYARV3h8Ns-72" value="." style="text;strokeColor=none;fillColor=none;align=left;verticalAlign=top;spacingLeft=4;spacingRight=4;overflow=hidden;rotatable=0;points=[[0,0.5],[1,0.5]];portConstraint=eastwest;whiteSpace=wrap;html=1;" vertex="1" parent="Czbqzu1dcFvYARV3h8Ns-69">
          <mxGeometry y="108" width="196" height="26" as="geometry" />
        </mxCell>
        <mxCell id="Czbqzu1dcFvYARV3h8Ns-73" value="OrderPanel" style="swimlane;fontStyle=1;align=center;verticalAlign=top;childLayout=stackLayout;horizontal=1;startSize=26;horizontalStack=0;resizeParent=1;resizeParentMax=0;resizeLast=0;collapsible=1;marginBottom=0;whiteSpace=wrap;html=1;" vertex="1" parent="1">
          <mxGeometry x="1584" y="-160" width="160" height="86" as="geometry" />
        </mxCell>
        <mxCell id="Czbqzu1dcFvYARV3h8Ns-74" value="- orderBLL: OrderBLL" style="text;strokeColor=none;fillColor=none;align=left;verticalAlign=top;spacingLeft=4;spacingRight=4;overflow=hidden;rotatable=0;points=[[0,0.5],[1,0.5]];portConstraint=eastwest;whiteSpace=wrap;html=1;" vertex="1" parent="Czbqzu1dcFvYARV3h8Ns-73">
          <mxGeometry y="26" width="160" height="26" as="geometry" />
        </mxCell>
        <mxCell id="Czbqzu1dcFvYARV3h8Ns-75" value="" style="line;strokeWidth=1;fillColor=none;align=left;verticalAlign=middle;spacingTop=-1;spacingLeft=3;spacingRight=3;rotatable=0;labelPosition=right;points=[];portConstraint=eastwest;strokeColor=inherit;" vertex="1" parent="Czbqzu1dcFvYARV3h8Ns-73">
          <mxGeometry y="52" width="160" height="8" as="geometry" />
        </mxCell>
        <mxCell id="Czbqzu1dcFvYARV3h8Ns-76" value="." style="text;strokeColor=none;fillColor=none;align=left;verticalAlign=top;spacingLeft=4;spacingRight=4;overflow=hidden;rotatable=0;points=[[0,0.5],[1,0.5]];portConstraint=eastwest;whiteSpace=wrap;html=1;" vertex="1" parent="Czbqzu1dcFvYARV3h8Ns-73">
          <mxGeometry y="60" width="160" height="26" as="geometry" />
        </mxCell>
        <mxCell id="Czbqzu1dcFvYARV3h8Ns-77" value="ProductPanel" style="swimlane;fontStyle=1;align=center;verticalAlign=top;childLayout=stackLayout;horizontal=1;startSize=26;horizontalStack=0;resizeParent=1;resizeParentMax=0;resizeLast=0;collapsible=1;marginBottom=0;whiteSpace=wrap;html=1;" vertex="1" parent="1">
          <mxGeometry x="1006" y="-160" width="160" height="85" as="geometry" />
        </mxCell>
        <mxCell id="Czbqzu1dcFvYARV3h8Ns-78" value="- productBLL: ProductBLL" style="text;strokeColor=none;fillColor=none;align=left;verticalAlign=top;spacingLeft=4;spacingRight=4;overflow=hidden;rotatable=0;points=[[0,0.5],[1,0.5]];portConstraint=eastwest;whiteSpace=wrap;html=1;" vertex="1" parent="Czbqzu1dcFvYARV3h8Ns-77">
          <mxGeometry y="26" width="160" height="25" as="geometry" />
        </mxCell>
        <mxCell id="Czbqzu1dcFvYARV3h8Ns-79" value="" style="line;strokeWidth=1;fillColor=none;align=left;verticalAlign=middle;spacingTop=-1;spacingLeft=3;spacingRight=3;rotatable=0;labelPosition=right;points=[];portConstraint=eastwest;strokeColor=inherit;" vertex="1" parent="Czbqzu1dcFvYARV3h8Ns-77">
          <mxGeometry y="51" width="160" height="8" as="geometry" />
        </mxCell>
        <mxCell id="Czbqzu1dcFvYARV3h8Ns-80" value="." style="text;strokeColor=none;fillColor=none;align=left;verticalAlign=top;spacingLeft=4;spacingRight=4;overflow=hidden;rotatable=0;points=[[0,0.5],[1,0.5]];portConstraint=eastwest;whiteSpace=wrap;html=1;" vertex="1" parent="Czbqzu1dcFvYARV3h8Ns-77">
          <mxGeometry y="59" width="160" height="26" as="geometry" />
        </mxCell>
        <mxCell id="Czbqzu1dcFvYARV3h8Ns-81" value="TableGenerator" style="swimlane;fontStyle=1;align=center;verticalAlign=top;childLayout=stackLayout;horizontal=1;startSize=26;horizontalStack=0;resizeParent=1;resizeParentMax=0;resizeLast=0;collapsible=1;marginBottom=0;whiteSpace=wrap;html=1;" vertex="1" parent="1">
          <mxGeometry x="1538" y="120" width="234" height="84" as="geometry" />
        </mxCell>
        <mxCell id="Czbqzu1dcFvYARV3h8Ns-82" value="." style="text;strokeColor=none;fillColor=none;align=left;verticalAlign=top;spacingLeft=4;spacingRight=4;overflow=hidden;rotatable=0;points=[[0,0.5],[1,0.5]];portConstraint=eastwest;whiteSpace=wrap;html=1;" vertex="1" parent="Czbqzu1dcFvYARV3h8Ns-81">
          <mxGeometry y="26" width="234" height="24" as="geometry" />
        </mxCell>
        <mxCell id="Czbqzu1dcFvYARV3h8Ns-83" value="" style="line;strokeWidth=1;fillColor=none;align=left;verticalAlign=middle;spacingTop=-1;spacingLeft=3;spacingRight=3;rotatable=0;labelPosition=right;points=[];portConstraint=eastwest;strokeColor=inherit;" vertex="1" parent="Czbqzu1dcFvYARV3h8Ns-81">
          <mxGeometry y="50" width="234" height="8" as="geometry" />
        </mxCell>
        <mxCell id="Czbqzu1dcFvYARV3h8Ns-84" value="generateTable(objectList List&amp;lt;T&amp;gt;): JTable" style="text;strokeColor=none;fillColor=none;align=left;verticalAlign=top;spacingLeft=4;spacingRight=4;overflow=hidden;rotatable=0;points=[[0,0.5],[1,0.5]];portConstraint=eastwest;whiteSpace=wrap;html=1;" vertex="1" parent="Czbqzu1dcFvYARV3h8Ns-81">
          <mxGeometry y="58" width="234" height="26" as="geometry" />
        </mxCell>
        <mxCell id="Czbqzu1dcFvYARV3h8Ns-85" value="ValidationUtils" style="swimlane;fontStyle=1;align=center;verticalAlign=top;childLayout=stackLayout;horizontal=1;startSize=26;horizontalStack=0;resizeParent=1;resizeParentMax=0;resizeLast=0;collapsible=1;marginBottom=0;whiteSpace=wrap;html=1;" vertex="1" parent="1">
          <mxGeometry x="1184" y="116" width="231" height="135" as="geometry" />
        </mxCell>
        <mxCell id="Czbqzu1dcFvYARV3h8Ns-86" value="." style="text;strokeColor=none;fillColor=none;align=left;verticalAlign=top;spacingLeft=4;spacingRight=4;overflow=hidden;rotatable=0;points=[[0,0.5],[1,0.5]];portConstraint=eastwest;whiteSpace=wrap;html=1;" vertex="1" parent="Czbqzu1dcFvYARV3h8Ns-85">
          <mxGeometry y="26" width="231" height="26" as="geometry" />
        </mxCell>
        <mxCell id="Czbqzu1dcFvYARV3h8Ns-87" value="" style="line;strokeWidth=1;fillColor=none;align=left;verticalAlign=middle;spacingTop=-1;spacingLeft=3;spacingRight=3;rotatable=0;labelPosition=right;points=[];portConstraint=eastwest;strokeColor=inherit;" vertex="1" parent="Czbqzu1dcFvYARV3h8Ns-85">
          <mxGeometry y="52" width="231" height="8" as="geometry" />
        </mxCell>
        <mxCell id="Czbqzu1dcFvYARV3h8Ns-88" value="+ isValidEmail(email: String): boolean&lt;div&gt;+ isValidPhone(phone: String): boolean&lt;/div&gt;&lt;div&gt;+ isNonEmpty(str: String): boolean&lt;br&gt;+ isPositiveNumber(str:String):&amp;nbsp;&lt;span style=&quot;background-color: transparent; color: light-dark(rgb(0, 0, 0), rgb(255, 255, 255));&quot;&gt;boolean&lt;/span&gt;&lt;/div&gt;" style="text;strokeColor=none;fillColor=none;align=left;verticalAlign=top;spacingLeft=4;spacingRight=4;overflow=hidden;rotatable=0;points=[[0,0.5],[1,0.5]];portConstraint=eastwest;whiteSpace=wrap;html=1;" vertex="1" parent="Czbqzu1dcFvYARV3h8Ns-85">
          <mxGeometry y="60" width="231" height="75" as="geometry" />
        </mxCell>
        <mxCell id="Czbqzu1dcFvYARV3h8Ns-92" style="edgeStyle=none;curved=1;rounded=0;orthogonalLoop=1;jettySize=auto;html=1;exitX=0.75;exitY=0;exitDx=0;exitDy=0;fontSize=12;startSize=8;endSize=8;" edge="1" parent="1" source="Czbqzu1dcFvYARV3h8Ns-61" target="Czbqzu1dcFvYARV3h8Ns-61">
          <mxGeometry relative="1" as="geometry" />
        </mxCell>
        <mxCell id="Czbqzu1dcFvYARV3h8Ns-93" value="" style="endArrow=block;endSize=16;endFill=0;html=1;rounded=0;fontSize=12;curved=1;exitX=0.5;exitY=0;exitDx=0;exitDy=0;entryX=0.176;entryY=1;entryDx=0;entryDy=0;entryPerimeter=0;" edge="1" parent="1" source="Czbqzu1dcFvYARV3h8Ns-29" target="Czbqzu1dcFvYARV3h8Ns-24">
          <mxGeometry width="160" relative="1" as="geometry">
            <mxPoint x="58" y="204" as="sourcePoint" />
            <mxPoint x="131" y="168" as="targetPoint" />
          </mxGeometry>
        </mxCell>
        <mxCell id="Czbqzu1dcFvYARV3h8Ns-94" value="" style="endArrow=block;endSize=16;endFill=0;html=1;rounded=0;fontSize=12;curved=1;exitX=0.5;exitY=0;exitDx=0;exitDy=0;" edge="1" parent="1" source="Czbqzu1dcFvYARV3h8Ns-33">
          <mxGeometry width="160" relative="1" as="geometry">
            <mxPoint x="-7" y="273" as="sourcePoint" />
            <mxPoint x="224" y="164" as="targetPoint" />
          </mxGeometry>
        </mxCell>
        <mxCell id="Czbqzu1dcFvYARV3h8Ns-95" value="" style="endArrow=block;endSize=16;endFill=0;html=1;rounded=0;fontSize=12;curved=1;exitX=0.5;exitY=0;exitDx=0;exitDy=0;entryX=0.735;entryY=1;entryDx=0;entryDy=0;entryPerimeter=0;" edge="1" parent="1" source="Czbqzu1dcFvYARV3h8Ns-37" target="Czbqzu1dcFvYARV3h8Ns-24">
          <mxGeometry width="160" relative="1" as="geometry">
            <mxPoint x="3" y="283" as="sourcePoint" />
            <mxPoint x="120" y="188" as="targetPoint" />
          </mxGeometry>
        </mxCell>
        <mxCell id="Czbqzu1dcFvYARV3h8Ns-98" value="" style="endArrow=diamondThin;endFill=1;endSize=24;html=1;rounded=0;fontSize=12;curved=1;entryX=0.5;entryY=0;entryDx=0;entryDy=0;exitX=0.45;exitY=1;exitDx=0;exitDy=0;exitPerimeter=0;" edge="1" parent="1" source="Czbqzu1dcFvYARV3h8Ns-32" target="Czbqzu1dcFvYARV3h8Ns-5">
          <mxGeometry width="160" relative="1" as="geometry">
            <mxPoint x="-137" y="368" as="sourcePoint" />
            <mxPoint x="23" y="368" as="targetPoint" />
          </mxGeometry>
        </mxCell>
        <mxCell id="Czbqzu1dcFvYARV3h8Ns-100" value="" style="endArrow=diamondThin;endFill=1;endSize=24;html=1;rounded=0;fontSize=12;curved=1;entryX=0.5;entryY=0;entryDx=0;entryDy=0;exitX=0.502;exitY=0.993;exitDx=0;exitDy=0;exitPerimeter=0;" edge="1" parent="1" source="Czbqzu1dcFvYARV3h8Ns-36" target="Czbqzu1dcFvYARV3h8Ns-9">
          <mxGeometry width="160" relative="1" as="geometry">
            <mxPoint x="-15" y="359" as="sourcePoint" />
            <mxPoint x="-57" y="467" as="targetPoint" />
          </mxGeometry>
        </mxCell>
        <mxCell id="Czbqzu1dcFvYARV3h8Ns-101" value="" style="endArrow=diamondThin;endFill=1;endSize=24;html=1;rounded=0;fontSize=12;curved=1;entryX=0.5;entryY=0;entryDx=0;entryDy=0;exitX=0.468;exitY=0.957;exitDx=0;exitDy=0;exitPerimeter=0;" edge="1" parent="1" source="Czbqzu1dcFvYARV3h8Ns-40" target="Czbqzu1dcFvYARV3h8Ns-13">
          <mxGeometry width="160" relative="1" as="geometry">
            <mxPoint x="-5" y="369" as="sourcePoint" />
            <mxPoint x="-47" y="477" as="targetPoint" />
          </mxGeometry>
        </mxCell>
        <mxCell id="Czbqzu1dcFvYARV3h8Ns-102" value="" style="endArrow=diamondThin;endFill=1;endSize=24;html=1;rounded=0;fontSize=12;curved=1;entryX=0.5;entryY=0;entryDx=0;entryDy=0;exitX=0.493;exitY=0.96;exitDx=0;exitDy=0;exitPerimeter=0;" edge="1" parent="1" source="Czbqzu1dcFvYARV3h8Ns-28" target="Czbqzu1dcFvYARV3h8Ns-1">
          <mxGeometry width="160" relative="1" as="geometry">
            <mxPoint x="994" y="389" as="sourcePoint" />
            <mxPoint x="952" y="497" as="targetPoint" />
          </mxGeometry>
        </mxCell>
        <mxCell id="Czbqzu1dcFvYARV3h8Ns-104" value="" style="endArrow=open;endSize=12;dashed=1;html=1;rounded=0;fontSize=12;curved=1;exitX=0.5;exitY=0;exitDx=0;exitDy=0;entryX=0.819;entryY=0.987;entryDx=0;entryDy=0;entryPerimeter=0;" edge="1" parent="1" source="Czbqzu1dcFvYARV3h8Ns-25" target="Czbqzu1dcFvYARV3h8Ns-20">
          <mxGeometry x="0.07" y="239" width="160" relative="1" as="geometry">
            <mxPoint x="227" y="6" as="sourcePoint" />
            <mxPoint x="582" y="-348" as="targetPoint" />
            <mxPoint x="-1" as="offset" />
          </mxGeometry>
        </mxCell>
        <mxCell id="Czbqzu1dcFvYARV3h8Ns-105" value="" style="endArrow=open;endSize=12;dashed=1;html=1;rounded=0;fontSize=12;curved=1;exitX=0.5;exitY=0;exitDx=0;exitDy=0;entryX=0.511;entryY=0.979;entryDx=0;entryDy=0;entryPerimeter=0;" edge="1" parent="1" source="Czbqzu1dcFvYARV3h8Ns-21" target="Czbqzu1dcFvYARV3h8Ns-20">
          <mxGeometry x="-0.0041" width="160" relative="1" as="geometry">
            <mxPoint x="227" y="6" as="sourcePoint" />
            <mxPoint x="387" y="6" as="targetPoint" />
            <mxPoint as="offset" />
          </mxGeometry>
        </mxCell>
        <mxCell id="Czbqzu1dcFvYARV3h8Ns-106" value="" style="endArrow=diamondThin;endFill=1;endSize=24;html=1;rounded=0;fontSize=12;curved=1;entryX=0;entryY=0.5;entryDx=0;entryDy=0;exitX=0.5;exitY=0;exitDx=0;exitDy=0;" edge="1" parent="1" source="Czbqzu1dcFvYARV3h8Ns-77" target="Czbqzu1dcFvYARV3h8Ns-72">
          <mxGeometry width="160" relative="1" as="geometry">
            <mxPoint x="1116" y="135" as="sourcePoint" />
            <mxPoint x="1276" y="135" as="targetPoint" />
          </mxGeometry>
        </mxCell>
        <mxCell id="Czbqzu1dcFvYARV3h8Ns-107" value="" style="endArrow=diamondThin;endFill=1;endSize=24;html=1;rounded=0;fontSize=12;curved=1;entryX=0.421;entryY=1.016;entryDx=0;entryDy=0;entryPerimeter=0;exitX=0.5;exitY=0;exitDx=0;exitDy=0;" edge="1" parent="1" source="Czbqzu1dcFvYARV3h8Ns-65" target="Czbqzu1dcFvYARV3h8Ns-72">
          <mxGeometry width="160" relative="1" as="geometry">
            <mxPoint x="1307" y="-10" as="sourcePoint" />
            <mxPoint x="1467" y="-10" as="targetPoint" />
          </mxGeometry>
        </mxCell>
        <mxCell id="Czbqzu1dcFvYARV3h8Ns-108" value="" style="endArrow=diamondThin;endFill=1;endSize=24;html=1;rounded=0;fontSize=12;curved=1;exitX=0.5;exitY=0;exitDx=0;exitDy=0;entryX=0.904;entryY=0.993;entryDx=0;entryDy=0;entryPerimeter=0;" edge="1" parent="1" source="Czbqzu1dcFvYARV3h8Ns-73" target="Czbqzu1dcFvYARV3h8Ns-72">
          <mxGeometry width="160" relative="1" as="geometry">
            <mxPoint x="1294" y="-150" as="sourcePoint" />
            <mxPoint x="1398" y="-319" as="targetPoint" />
          </mxGeometry>
        </mxCell>
        <mxCell id="Czbqzu1dcFvYARV3h8Ns-109" value="" style="endArrow=diamondThin;endFill=1;endSize=24;html=1;rounded=0;fontSize=12;curved=1;entryX=1;entryY=0.5;entryDx=0;entryDy=0;exitX=0.5;exitY=0;exitDx=0;exitDy=0;" edge="1" parent="1" source="Czbqzu1dcFvYARV3h8Ns-61" target="Czbqzu1dcFvYARV3h8Ns-72">
          <mxGeometry width="160" relative="1" as="geometry">
            <mxPoint x="1538" y="-178" as="sourcePoint" />
            <mxPoint x="1598" y="-334" as="targetPoint" />
          </mxGeometry>
        </mxCell>
        <mxCell id="Czbqzu1dcFvYARV3h8Ns-116" value="" style="endArrow=open;endSize=12;dashed=1;html=1;rounded=0;fontSize=12;curved=1;exitX=1;exitY=0.5;exitDx=0;exitDy=0;entryX=0.5;entryY=0;entryDx=0;entryDy=0;" edge="1" parent="1" source="Czbqzu1dcFvYARV3h8Ns-48" target="Czbqzu1dcFvYARV3h8Ns-57">
          <mxGeometry width="160" relative="1" as="geometry">
            <mxPoint x="478" y="919" as="sourcePoint" />
            <mxPoint x="638" y="919" as="targetPoint" />
          </mxGeometry>
        </mxCell>
        <mxCell id="Czbqzu1dcFvYARV3h8Ns-117" value="" style="endArrow=open;endSize=12;dashed=1;html=1;rounded=0;fontSize=12;curved=1;exitX=0;exitY=0.5;exitDx=0;exitDy=0;entryX=0.5;entryY=0;entryDx=0;entryDy=0;" edge="1" parent="1" source="Czbqzu1dcFvYARV3h8Ns-56" target="Czbqzu1dcFvYARV3h8Ns-57">
          <mxGeometry width="160" relative="1" as="geometry">
            <mxPoint x="7" y="980" as="sourcePoint" />
            <mxPoint x="270" y="1191" as="targetPoint" />
          </mxGeometry>
        </mxCell>
        <mxCell id="Czbqzu1dcFvYARV3h8Ns-119" value="" style="endArrow=open;endSize=12;dashed=1;html=1;rounded=0;fontSize=12;curved=1;exitX=0.468;exitY=1.021;exitDx=0;exitDy=0;exitPerimeter=0;entryX=0.5;entryY=0;entryDx=0;entryDy=0;" edge="1" parent="1" source="Czbqzu1dcFvYARV3h8Ns-8" target="Czbqzu1dcFvYARV3h8Ns-45">
          <mxGeometry width="160" relative="1" as="geometry">
            <mxPoint x="478" y="919" as="sourcePoint" />
            <mxPoint x="638" y="919" as="targetPoint" />
          </mxGeometry>
        </mxCell>
        <mxCell id="Czbqzu1dcFvYARV3h8Ns-120" value="" style="endArrow=open;endSize=12;dashed=1;html=1;rounded=0;fontSize=12;curved=1;exitX=0.489;exitY=1.081;exitDx=0;exitDy=0;exitPerimeter=0;entryX=0.5;entryY=0;entryDx=0;entryDy=0;" edge="1" parent="1" source="Czbqzu1dcFvYARV3h8Ns-12" target="Czbqzu1dcFvYARV3h8Ns-49">
          <mxGeometry width="160" relative="1" as="geometry">
            <mxPoint x="478" y="919" as="sourcePoint" />
            <mxPoint x="638" y="919" as="targetPoint" />
          </mxGeometry>
        </mxCell>
        <mxCell id="Czbqzu1dcFvYARV3h8Ns-121" value="" style="endArrow=open;endSize=12;dashed=1;html=1;rounded=0;fontSize=12;curved=1;exitX=0.722;exitY=0.998;exitDx=0;exitDy=0;exitPerimeter=0;entryX=0.5;entryY=0;entryDx=0;entryDy=0;" edge="1" parent="1" source="Czbqzu1dcFvYARV3h8Ns-16" target="Czbqzu1dcFvYARV3h8Ns-53">
          <mxGeometry width="160" relative="1" as="geometry">
            <mxPoint x="233" y="646" as="sourcePoint" />
            <mxPoint x="256" y="845" as="targetPoint" />
          </mxGeometry>
        </mxCell>
        <mxCell id="Czbqzu1dcFvYARV3h8Ns-122" value="" style="endArrow=open;endSize=12;dashed=1;html=1;rounded=0;fontSize=12;curved=1;exitX=0.497;exitY=1.048;exitDx=0;exitDy=0;exitPerimeter=0;entryX=0.5;entryY=0;entryDx=0;entryDy=0;" edge="1" parent="1" source="Czbqzu1dcFvYARV3h8Ns-4" target="Czbqzu1dcFvYARV3h8Ns-41">
          <mxGeometry width="160" relative="1" as="geometry">
            <mxPoint x="1117" y="470" as="sourcePoint" />
            <mxPoint x="1277" y="470" as="targetPoint" />
          </mxGeometry>
        </mxCell>
        <mxCell id="Czbqzu1dcFvYARV3h8Ns-110" value="" style="endArrow=open;endSize=12;dashed=1;html=1;rounded=0;fontSize=12;curved=1;exitX=0.538;exitY=1.026;exitDx=0;exitDy=0;entryX=0.5;entryY=0;entryDx=0;entryDy=0;exitPerimeter=0;" edge="1" parent="1" source="Czbqzu1dcFvYARV3h8Ns-80" target="Czbqzu1dcFvYARV3h8Ns-85">
          <mxGeometry width="160" relative="1" as="geometry">
            <mxPoint x="1269" y="56" as="sourcePoint" />
            <mxPoint x="1269" y="99" as="targetPoint" />
          </mxGeometry>
        </mxCell>
        <mxCell id="Czbqzu1dcFvYARV3h8Ns-112" value="" style="endArrow=open;endSize=12;dashed=1;html=1;rounded=0;fontSize=12;curved=1;exitX=0.71;exitY=1.1;exitDx=0;exitDy=0;entryX=0.5;entryY=0;entryDx=0;entryDy=0;exitPerimeter=0;" edge="1" parent="1" source="Czbqzu1dcFvYARV3h8Ns-80" target="Czbqzu1dcFvYARV3h8Ns-81">
          <mxGeometry width="160" relative="1" as="geometry">
            <mxPoint x="1283" y="-63" as="sourcePoint" />
            <mxPoint x="1178" y="127" as="targetPoint" />
          </mxGeometry>
        </mxCell>
        <mxCell id="Czbqzu1dcFvYARV3h8Ns-111" value="" style="endArrow=open;endSize=12;dashed=1;html=1;rounded=0;fontSize=12;curved=1;exitX=0.433;exitY=1.051;exitDx=0;exitDy=0;entryX=0.5;entryY=0;entryDx=0;entryDy=0;exitPerimeter=0;" edge="1" parent="1" source="Czbqzu1dcFvYARV3h8Ns-68" target="Czbqzu1dcFvYARV3h8Ns-85">
          <mxGeometry width="160" relative="1" as="geometry">
            <mxPoint x="1102" y="-63" as="sourcePoint" />
            <mxPoint x="1214" y="110" as="targetPoint" />
          </mxGeometry>
        </mxCell>
        <mxCell id="Czbqzu1dcFvYARV3h8Ns-113" value="" style="endArrow=open;endSize=12;dashed=1;html=1;rounded=0;fontSize=12;curved=1;exitX=0.617;exitY=1.131;exitDx=0;exitDy=0;entryX=0.5;entryY=0;entryDx=0;entryDy=0;exitPerimeter=0;" edge="1" parent="1" source="Czbqzu1dcFvYARV3h8Ns-68" target="Czbqzu1dcFvYARV3h8Ns-81">
          <mxGeometry width="160" relative="1" as="geometry">
            <mxPoint x="1293" y="-53" as="sourcePoint" />
            <mxPoint x="1188" y="137" as="targetPoint" />
          </mxGeometry>
        </mxCell>
        <mxCell id="Czbqzu1dcFvYARV3h8Ns-114" value="" style="endArrow=open;endSize=12;dashed=1;html=1;rounded=0;fontSize=12;curved=1;exitX=0.526;exitY=1.038;exitDx=0;exitDy=0;entryX=0.5;entryY=0;entryDx=0;entryDy=0;exitPerimeter=0;" edge="1" parent="1" source="Czbqzu1dcFvYARV3h8Ns-76" target="Czbqzu1dcFvYARV3h8Ns-81">
          <mxGeometry width="160" relative="1" as="geometry">
            <mxPoint x="1303" y="-43" as="sourcePoint" />
            <mxPoint x="1198" y="147" as="targetPoint" />
          </mxGeometry>
        </mxCell>
        <mxCell id="Czbqzu1dcFvYARV3h8Ns-115" value="" style="endArrow=open;endSize=12;dashed=1;html=1;rounded=0;fontSize=12;curved=1;exitX=0.628;exitY=0.885;exitDx=0;exitDy=0;entryX=0.5;entryY=0;entryDx=0;entryDy=0;exitPerimeter=0;" edge="1" parent="1" source="Czbqzu1dcFvYARV3h8Ns-64" target="Czbqzu1dcFvYARV3h8Ns-81">
          <mxGeometry width="160" relative="1" as="geometry">
            <mxPoint x="1313" y="-33" as="sourcePoint" />
            <mxPoint x="1208" y="157" as="targetPoint" />
          </mxGeometry>
        </mxCell>
        <mxCell id="Czbqzu1dcFvYARV3h8Ns-126" value="" style="endArrow=diamondThin;endFill=1;endSize=24;html=1;rounded=0;fontSize=12;exitX=0.75;exitY=0;exitDx=0;exitDy=0;edgeStyle=orthogonalEdgeStyle;" edge="1" parent="1" source="Czbqzu1dcFvYARV3h8Ns-13">
          <mxGeometry width="160" relative="1" as="geometry">
            <mxPoint x="573" y="470" as="sourcePoint" />
            <mxPoint x="1005" y="-121" as="targetPoint" />
            <Array as="points">
              <mxPoint x="622" y="408" />
              <mxPoint x="944" y="408" />
              <mxPoint x="944" y="-122" />
              <mxPoint x="1005" y="-122" />
            </Array>
          </mxGeometry>
        </mxCell>
        <mxCell id="Czbqzu1dcFvYARV3h8Ns-128" value="" style="endArrow=diamondThin;endFill=1;endSize=24;html=1;rounded=0;fontSize=12;exitX=1;exitY=0.5;exitDx=0;exitDy=0;entryX=0;entryY=0.5;entryDx=0;entryDy=0;edgeStyle=elbowEdgeStyle;" edge="1" parent="1" source="Czbqzu1dcFvYARV3h8Ns-2" target="Czbqzu1dcFvYARV3h8Ns-62">
          <mxGeometry width="160" relative="1" as="geometry">
            <mxPoint x="1063" y="510" as="sourcePoint" />
            <mxPoint x="1223" y="510" as="targetPoint" />
            <Array as="points">
              <mxPoint x="1824" y="214" />
            </Array>
          </mxGeometry>
        </mxCell>
        <mxCell id="Czbqzu1dcFvYARV3h8Ns-129" value="" style="endArrow=diamondThin;endFill=1;endSize=24;html=1;rounded=0;fontSize=12;entryX=0;entryY=0.5;entryDx=0;entryDy=0;exitX=0.75;exitY=0;exitDx=0;exitDy=0;edgeStyle=orthogonalEdgeStyle;" edge="1" parent="1" source="Czbqzu1dcFvYARV3h8Ns-9" target="Czbqzu1dcFvYARV3h8Ns-74">
          <mxGeometry width="160" relative="1" as="geometry">
            <mxPoint x="835" y="228" as="sourcePoint" />
            <mxPoint x="995" y="228" as="targetPoint" />
            <Array as="points">
              <mxPoint x="284" y="484" />
              <mxPoint x="284" y="422" />
              <mxPoint x="1472" y="422" />
              <mxPoint x="1472" y="-121" />
            </Array>
          </mxGeometry>
        </mxCell>
        <mxCell id="Czbqzu1dcFvYARV3h8Ns-130" value="" style="endArrow=diamondThin;endFill=1;endSize=24;html=1;rounded=0;fontSize=12;exitX=0.75;exitY=0;exitDx=0;exitDy=0;entryX=0;entryY=0.5;entryDx=0;entryDy=0;edgeStyle=orthogonalEdgeStyle;" edge="1" parent="1" source="Czbqzu1dcFvYARV3h8Ns-5" target="Czbqzu1dcFvYARV3h8Ns-66">
          <mxGeometry width="160" relative="1" as="geometry">
            <mxPoint x="835" y="394" as="sourcePoint" />
            <mxPoint x="995" y="394" as="targetPoint" />
            <Array as="points">
              <mxPoint x="1" y="438" />
              <mxPoint x="1117" y="438" />
              <mxPoint x="1117" y="25" />
              <mxPoint x="1232" y="25" />
              <mxPoint x="1232" y="-121" />
            </Array>
          </mxGeometry>
        </mxCell>
        <mxCell id="Czbqzu1dcFvYARV3h8Ns-132" value="" style="endArrow=diamondThin;endFill=1;endSize=24;html=1;rounded=0;fontSize=12;curved=1;exitX=1;exitY=0.5;exitDx=0;exitDy=0;" edge="1" parent="1" source="Czbqzu1dcFvYARV3h8Ns-32" target="Czbqzu1dcFvYARV3h8Ns-9">
          <mxGeometry width="160" relative="1" as="geometry">
            <mxPoint x="649" y="259" as="sourcePoint" />
            <mxPoint x="809" y="259" as="targetPoint" />
          </mxGeometry>
        </mxCell>
        <mxCell id="Czbqzu1dcFvYARV3h8Ns-133" value="" style="endArrow=diamondThin;endFill=1;endSize=24;html=1;rounded=0;fontSize=12;curved=1;entryX=0.75;entryY=0;entryDx=0;entryDy=0;exitX=0;exitY=0.5;exitDx=0;exitDy=0;" edge="1" parent="1" source="Czbqzu1dcFvYARV3h8Ns-40" target="Czbqzu1dcFvYARV3h8Ns-9">
          <mxGeometry width="160" relative="1" as="geometry">
            <mxPoint x="649" y="259" as="sourcePoint" />
            <mxPoint x="809" y="259" as="targetPoint" />
          </mxGeometry>
        </mxCell>
        <mxCell id="Czbqzu1dcFvYARV3h8Ns-134" value="" style="endArrow=diamondThin;endFill=1;endSize=24;html=1;rounded=0;fontSize=12;curved=1;entryX=1;entryY=0;entryDx=0;entryDy=0;exitX=0;exitY=0.5;exitDx=0;exitDy=0;" edge="1" parent="1" source="Czbqzu1dcFvYARV3h8Ns-28" target="Czbqzu1dcFvYARV3h8Ns-9">
          <mxGeometry width="160" relative="1" as="geometry">
            <mxPoint x="649" y="259" as="sourcePoint" />
            <mxPoint x="809" y="259" as="targetPoint" />
          </mxGeometry>
        </mxCell>
      </root>
    </mxGraphModel>
  </diagram>
  <diagram id="zS8J3a4LtHOVj15jhVkV" name="Use_Case_Diagram">
    <mxGraphModel dx="1923" dy="1318" grid="0" gridSize="10" guides="1" tooltips="1" connect="1" arrows="1" fold="1" page="0" pageScale="1" pageWidth="850" pageHeight="1100" math="0" shadow="0">
      <root>
        <mxCell id="0" />
        <mxCell id="1" parent="0" />
        <mxCell id="kTjsQCqknMVhAEsPKm2v-23" value="" style="rounded=0;whiteSpace=wrap;html=1;" vertex="1" parent="1">
          <mxGeometry x="-79" y="-153" width="453" height="611" as="geometry" />
        </mxCell>
        <mxCell id="kTjsQCqknMVhAEsPKm2v-1" value="Orders manager" style="shape=umlActor;verticalLabelPosition=bottom;verticalAlign=top;html=1;" vertex="1" parent="1">
          <mxGeometry x="-29" y="140" width="60" height="121" as="geometry" />
        </mxCell>
        <mxCell id="kTjsQCqknMVhAEsPKm2v-4" value="Add Client" style="ellipse;whiteSpace=wrap;html=1;" vertex="1" parent="1">
          <mxGeometry x="179" y="-118" width="138" height="54" as="geometry" />
        </mxCell>
        <mxCell id="kTjsQCqknMVhAEsPKm2v-6" value="&lt;div&gt;&lt;br&gt;&lt;/div&gt;Update Client&lt;div&gt;&lt;span style=&quot;color: rgba(0, 0, 0, 0); font-family: monospace; font-size: 0px; text-align: start; text-wrap-mode: nowrap;&quot;&gt;%3CmxGraphModel%3E%3Croot%3E%3CmxCell%20id%3D%220%22%2F%3E%3CmxCell%20id%3D%221%22%20parent%3D%220%22%2F%3E%3CmxCell%20id%3D%222%22%20value%3D%22Add%20Client%22%20style%3D%22ellipse%3BwhiteSpace%3Dwrap%3Bhtml%3D1%3B%22%20vertex%3D%221%22%20parent%3D%221%22%3E%3CmxGeometry%20x%3D%22179%22%20y%3D%22-118%22%20width%3D%22138%22%20height%3D%2254%22%20as%3D%22geometry%22%2F%3E%3C%2FmxCell%3E%3C%2Froot%3E%3C%2FmxGraphModel%&lt;/span&gt;&lt;/div&gt;" style="ellipse;whiteSpace=wrap;html=1;" vertex="1" parent="1">
          <mxGeometry x="179" y="-46" width="138" height="54" as="geometry" />
        </mxCell>
        <mxCell id="kTjsQCqknMVhAEsPKm2v-7" value="Delete Client" style="ellipse;whiteSpace=wrap;html=1;" vertex="1" parent="1">
          <mxGeometry x="179" y="26" width="138" height="54" as="geometry" />
        </mxCell>
        <mxCell id="kTjsQCqknMVhAEsPKm2v-8" value="Add Product" style="ellipse;whiteSpace=wrap;html=1;" vertex="1" parent="1">
          <mxGeometry x="179" y="93" width="138" height="54" as="geometry" />
        </mxCell>
        <mxCell id="kTjsQCqknMVhAEsPKm2v-9" value="Update Product" style="ellipse;whiteSpace=wrap;html=1;" vertex="1" parent="1">
          <mxGeometry x="179" y="160" width="138" height="54" as="geometry" />
        </mxCell>
        <mxCell id="kTjsQCqknMVhAEsPKm2v-10" value="Delete Product" style="ellipse;whiteSpace=wrap;html=1;" vertex="1" parent="1">
          <mxGeometry x="179" y="227" width="138" height="54" as="geometry" />
        </mxCell>
        <mxCell id="kTjsQCqknMVhAEsPKm2v-11" value="Place order" style="ellipse;whiteSpace=wrap;html=1;" vertex="1" parent="1">
          <mxGeometry x="179" y="294" width="138" height="54" as="geometry" />
        </mxCell>
        <mxCell id="kTjsQCqknMVhAEsPKm2v-12" value="Export Bill&lt;div&gt;(Make recipt)&lt;/div&gt;" style="ellipse;whiteSpace=wrap;html=1;" vertex="1" parent="1">
          <mxGeometry x="179" y="361" width="138" height="54" as="geometry" />
        </mxCell>
        <mxCell id="kTjsQCqknMVhAEsPKm2v-13" value="" style="endArrow=none;html=1;rounded=0;fontSize=12;startSize=8;endSize=8;curved=1;exitX=1;exitY=0.3333333333333333;exitDx=0;exitDy=0;exitPerimeter=0;entryX=0;entryY=0.5;entryDx=0;entryDy=0;" edge="1" parent="1" source="kTjsQCqknMVhAEsPKm2v-1" target="kTjsQCqknMVhAEsPKm2v-4">
          <mxGeometry width="50" height="50" relative="1" as="geometry">
            <mxPoint x="175" y="225" as="sourcePoint" />
            <mxPoint x="225" y="175" as="targetPoint" />
          </mxGeometry>
        </mxCell>
        <mxCell id="kTjsQCqknMVhAEsPKm2v-14" value="" style="endArrow=none;html=1;rounded=0;fontSize=12;startSize=8;endSize=8;curved=1;exitX=1;exitY=0.3333333333333333;exitDx=0;exitDy=0;exitPerimeter=0;entryX=0;entryY=0.5;entryDx=0;entryDy=0;" edge="1" parent="1" source="kTjsQCqknMVhAEsPKm2v-1" target="kTjsQCqknMVhAEsPKm2v-6">
          <mxGeometry width="50" height="50" relative="1" as="geometry">
            <mxPoint x="175" y="225" as="sourcePoint" />
            <mxPoint x="225" y="175" as="targetPoint" />
          </mxGeometry>
        </mxCell>
        <mxCell id="kTjsQCqknMVhAEsPKm2v-15" value="" style="endArrow=none;html=1;rounded=0;fontSize=12;startSize=8;endSize=8;curved=1;exitX=1;exitY=0.3333333333333333;exitDx=0;exitDy=0;exitPerimeter=0;entryX=0;entryY=0.5;entryDx=0;entryDy=0;" edge="1" parent="1" source="kTjsQCqknMVhAEsPKm2v-1" target="kTjsQCqknMVhAEsPKm2v-7">
          <mxGeometry width="50" height="50" relative="1" as="geometry">
            <mxPoint x="175" y="225" as="sourcePoint" />
            <mxPoint x="225" y="175" as="targetPoint" />
          </mxGeometry>
        </mxCell>
        <mxCell id="kTjsQCqknMVhAEsPKm2v-16" value="" style="endArrow=none;html=1;rounded=0;fontSize=12;startSize=8;endSize=8;curved=1;exitX=1;exitY=0.3333333333333333;exitDx=0;exitDy=0;exitPerimeter=0;entryX=0;entryY=0.5;entryDx=0;entryDy=0;" edge="1" parent="1" source="kTjsQCqknMVhAEsPKm2v-1" target="kTjsQCqknMVhAEsPKm2v-8">
          <mxGeometry width="50" height="50" relative="1" as="geometry">
            <mxPoint x="175" y="225" as="sourcePoint" />
            <mxPoint x="225" y="175" as="targetPoint" />
          </mxGeometry>
        </mxCell>
        <mxCell id="kTjsQCqknMVhAEsPKm2v-17" value="" style="endArrow=none;html=1;rounded=0;fontSize=12;startSize=8;endSize=8;curved=1;exitX=1;exitY=0.3333333333333333;exitDx=0;exitDy=0;exitPerimeter=0;entryX=0;entryY=0.5;entryDx=0;entryDy=0;" edge="1" parent="1" source="kTjsQCqknMVhAEsPKm2v-1" target="kTjsQCqknMVhAEsPKm2v-9">
          <mxGeometry width="50" height="50" relative="1" as="geometry">
            <mxPoint x="175" y="225" as="sourcePoint" />
            <mxPoint x="225" y="175" as="targetPoint" />
          </mxGeometry>
        </mxCell>
        <mxCell id="kTjsQCqknMVhAEsPKm2v-18" value="" style="endArrow=none;html=1;rounded=0;fontSize=12;startSize=8;endSize=8;curved=1;exitX=1;exitY=0.3333333333333333;exitDx=0;exitDy=0;exitPerimeter=0;entryX=0;entryY=0.5;entryDx=0;entryDy=0;" edge="1" parent="1" source="kTjsQCqknMVhAEsPKm2v-1" target="kTjsQCqknMVhAEsPKm2v-10">
          <mxGeometry width="50" height="50" relative="1" as="geometry">
            <mxPoint x="175" y="225" as="sourcePoint" />
            <mxPoint x="225" y="175" as="targetPoint" />
          </mxGeometry>
        </mxCell>
        <mxCell id="kTjsQCqknMVhAEsPKm2v-19" value="" style="endArrow=none;html=1;rounded=0;fontSize=12;startSize=8;endSize=8;curved=1;exitX=1;exitY=0.3333333333333333;exitDx=0;exitDy=0;exitPerimeter=0;entryX=0;entryY=0.5;entryDx=0;entryDy=0;" edge="1" parent="1" source="kTjsQCqknMVhAEsPKm2v-1" target="kTjsQCqknMVhAEsPKm2v-11">
          <mxGeometry width="50" height="50" relative="1" as="geometry">
            <mxPoint x="175" y="225" as="sourcePoint" />
            <mxPoint x="225" y="175" as="targetPoint" />
          </mxGeometry>
        </mxCell>
        <mxCell id="kTjsQCqknMVhAEsPKm2v-20" value="" style="endArrow=none;html=1;rounded=0;fontSize=12;startSize=8;endSize=8;curved=1;exitX=1;exitY=0.3333333333333333;exitDx=0;exitDy=0;exitPerimeter=0;entryX=0;entryY=0.5;entryDx=0;entryDy=0;" edge="1" parent="1" source="kTjsQCqknMVhAEsPKm2v-1" target="kTjsQCqknMVhAEsPKm2v-12">
          <mxGeometry width="50" height="50" relative="1" as="geometry">
            <mxPoint x="175" y="225" as="sourcePoint" />
            <mxPoint x="225" y="175" as="targetPoint" />
          </mxGeometry>
        </mxCell>
      </root>
    </mxGraphModel>
  </diagram>
</mxfile>
